<?xml version="1.0" encoding="utf-8"?>
<!-- Generator: Adobe Illustrator 23.0.6, SVG Export Plug-In . SVG Version: 6.00 Build 0)  -->
<svg version="1.1" id="Layer_1" xmlns="http://www.w3.org/2000/svg" xmlns:xlink="http://www.w3.org/1999/xlink" x="0px" y="0px"
	 viewBox="0 0 1147.4 1097.2" style="enable-background:new 0 0 1147.4 1097.2;" xml:space="preserve">
<style type="text/css">
	.st0{fill:#666666;}
</style>
<g>
	<path class="st0" d="M384.2,295.3l-42.3-80.5c66.5-35,218.9-114.7,339.6-177.5c51.1-26.6,114.4-8.8,144.2,40.5l92.8,153.8l-77.9,47
		l-92.8-153.8c-5-8.3-15.7-11.3-24.4-6.9C602.8,180.8,450.6,260.4,384.2,295.3z"/>
	<path class="st0" d="M1038.3,812.5h-199c-97,0-176-78.9-176-176c0-97,78.9-176,176-176h199c60.2,0,109.2,49,109.2,109.2v133.6
		C1147.4,763.6,1098.4,812.5,1038.3,812.5z M839.2,551.5c-46.9,0-85,38.1-85,85s38.1,85,85,85h199c10.1,0,18.2-8.2,18.2-18.2V569.8
		c0-10.1-8.2-18.2-18.2-18.2L839.2,551.5L839.2,551.5z"/>
	<circle class="st0" cx="854" cy="636.6" r="38.5"/>
	<path class="st0" d="M884.9,1063.6H152.3C68.3,1063.6,0,995.3,0,911.3V361.9c0-84,68.3-152.3,152.3-152.3h732.6
		c84,0,152.3,68.3,152.3,152.3v144.2h-91V361.9c0-33.8-27.5-61.3-61.3-61.3H152.3c-33.8,0-61.3,27.5-61.3,61.3v549.4
		c0,33.8,27.5,61.3,61.3,61.3h732.6c33.8,0,61.3-27.5,61.3-61.3V767.1h91v144.2C1037.2,995.3,968.9,1063.6,884.9,1063.6z"/>
</g>
</svg>
