<?xml version="1.0" encoding="utf-8"?>
<!-- Generator: Adobe Illustrator 23.0.6, SVG Export Plug-In . SVG Version: 6.00 Build 0)  -->
<svg version="1.1" id="Layer_1" xmlns="http://www.w3.org/2000/svg" xmlns:xlink="http://www.w3.org/1999/xlink" x="0px" y="0px"
	 viewBox="0 0 1147.4 1097.2" style="enable-background:new 0 0 1147.4 1097.2;" xml:space="preserve">
<style type="text/css">
	.st0{fill:#FFFFFF;}
</style>
<g>
	<path class="st0" d="M1038.3,460.6h-1v-98.7c0-76.8-57.1-140.4-131.1-150.8L825.7,77.8c-29.8-49.3-93.1-67.1-144.2-40.5
		c-115,59.9-258.8,135-329.6,172.3H152.3C68.3,209.6,0,277.9,0,361.9v549.4c0,84,68.3,152.3,152.3,152.3h732.6
		c84,0,152.3-68.3,152.3-152.3v-98.7h1c60.2,0,109.2-49,109.2-109.2V569.8C1147.4,509.6,1098.4,460.6,1038.3,460.6z M723.5,118
		c8.6-4.5,19.3-1.5,24.4,6.9l51.2,84.8H547.9C605.5,179.5,667.8,147,723.5,118z M946.2,911.3c0,33.8-27.5,61.3-61.3,61.3H152.3
		c-33.8,0-61.3-27.5-61.3-61.3V361.9c0-33.8,27.5-61.3,61.3-61.3h732.6c33.8,0,61.3,27.5,61.3,61.3v98.7h-107
		c-97,0-176,78.9-176,176c0,97,78.9,176,176,176h107V911.3z M1056.5,703.4c0,10.1-8.2,18.2-18.2,18.2h-199c-46.9,0-85-38.1-85-85
		c0-46.9,38.1-85,85-85h199c10.1,0,18.2,8.2,18.2,18.2V703.4z"/>
	
		<ellipse transform="matrix(0.9848 -0.1735 0.1735 0.9848 -97.495 157.8331)" class="st0" cx="854" cy="636.6" rx="38.5" ry="38.5"/>
</g>
</svg>
